<svg width="50" height="50" viewBox="0 0 50 50" fill="none" xmlns="http://www.w3.org/2000/svg">
<path fill-rule="evenodd" clip-rule="evenodd" d="M4.88088 9.08954C4 10.3266 4 14.0039 4 21.3584V24.9802C4 37.9476 13.8909 44.2406 20.0966 46.9128C21.78 47.6375 22.6216 48 25 48C27.3784 48 28.22 47.6375 29.9033 46.9128C36.109 44.2406 46 37.9476 46 24.9802V21.3584C46 14.0039 46 10.3266 45.1192 9.08954C44.2383 7.85244 40.7306 6.66891 33.7152 4.30182L32.3787 3.85086C28.7217 2.61695 26.8933 2 25 2C23.1067 2 21.2783 2.61695 17.6213 3.85086L16.2848 4.30182C9.26941 6.66891 5.76174 7.85244 4.88088 9.08954ZM35.3833 22.585L27.45 16.72C25.9982 15.6467 24.0018 15.6467 22.55 16.72L14.6167 22.585C13.8435 23.1565 13.6868 24.2378 14.2667 25C14.8466 25.7622 15.9435 25.9165 16.7167 25.345L24.65 19.48C24.8574 19.3267 25.1426 19.3267 25.35 19.48L33.2833 25.345C34.0566 25.9165 35.1535 25.7622 35.7333 25C36.3132 24.2378 36.1566 23.1565 35.3833 22.585ZM30.7167 28.335L26.05 24.885C25.4277 24.425 24.5723 24.425 23.95 24.885L19.2833 28.335C18.5101 28.9065 18.3534 29.9878 18.9333 30.75C19.5132 31.5122 20.6101 31.6665 21.3833 31.095L25 28.4212L28.6167 31.095C29.3899 31.6665 30.4868 31.5122 31.0667 30.75C31.6465 29.9878 31.4899 28.9065 30.7167 28.335Z" fill="#2B2F2F"/>
</svg>
