<svg width="51" height="50" viewBox="0 0 51 50" fill="none" xmlns="http://www.w3.org/2000/svg">
<path d="M36.6132 32.7823C36.976 30.2041 37.1561 27.6036 37.1522 25C37.1561 22.3964 36.976 19.7959 36.6132 17.2177H46.8045C48.6055 22.2496 48.6055 27.7504 46.8045 32.7823H36.6132ZM25.1553 48C22.9095 48 20.617 45.6946 18.859 41.6759C18.056 39.8404 17.402 37.7479 16.9124 35.4767H33.3981C32.9086 37.747 32.2546 39.8395 31.4515 41.6759C29.6935 45.6946 27.401 48 25.1553 48ZM16.4201 32.7823C15.6632 27.6217 15.6632 22.3783 16.4201 17.2177H33.8904C34.2732 19.7941 34.463 22.3954 34.4581 25C34.463 27.6046 34.2732 30.2059 33.8904 32.7823H16.4201ZM3.50608 32.7823C1.705 27.7504 1.705 22.2496 3.50608 17.2177H13.6974C12.9775 22.3809 12.9775 27.6191 13.6974 32.7823H3.50608ZM25.1553 2C27.401 2 29.6935 4.30449 31.4515 8.3241C32.2546 10.1596 32.9086 12.2521 33.3981 14.5233H16.9124C17.402 12.253 18.056 10.1605 18.859 8.3241C20.617 4.30449 22.9095 2 25.1553 2ZM45.6367 14.5224H36.1488C35.6098 11.8541 34.8606 9.39145 33.921 7.24508C33.1601 5.50391 32.2977 4.02957 31.3536 2.84184C34.415 3.68976 37.2661 5.16633 39.7253 7.17742C42.1845 9.18851 44.1977 11.69 45.6367 14.5224ZM18.957 2.84094C18.0155 4.02957 17.1541 5.50301 16.3923 7.24328C15.4527 9.39145 14.7044 11.8541 14.1645 14.5206H4.67388C6.11315 11.6885 8.1265 9.18735 10.5856 7.17645C13.0448 5.16554 15.8958 3.68901 18.957 2.84094ZM4.67388 35.4776H14.1618C14.7008 38.1459 15.45 40.6086 16.3896 42.7549C17.1514 44.4952 18.0128 45.9686 18.9543 47.1573C15.8934 46.3091 13.0429 44.8325 10.5842 42.8216C8.12549 40.8107 6.11263 38.3095 4.67388 35.4776ZM31.3536 47.1573C32.295 45.9686 33.1574 44.4952 33.9183 42.7549C34.8579 40.6068 35.6062 38.1441 36.1461 35.4776H45.6367C44.1977 38.3101 42.1845 40.8117 39.7253 42.823C37.2662 44.8342 34.415 46.3109 31.3536 47.1591V47.1573Z" fill="#2B2F2F"/>
</svg>
