<svg width="293" height="292" viewBox="0 0 293 292" fill="none" xmlns="http://www.w3.org/2000/svg">
<path d="M190.481 139.85C190.777 135.113 190.925 130.327 190.925 125.442C190.925 53.7972 151.254 23.1556 149.576 21.922C147.8 20.5898 145.382 20.5898 143.655 21.922C141.977 23.1556 102.257 53.7972 102.257 125.442C102.257 130.327 102.454 135.113 102.701 139.85C92.5364 144.982 65.2501 164.176 81.1877 216.775C81.6317 218.157 82.6186 219.291 83.9015 219.884C84.5429 220.18 85.2337 220.278 85.9245 220.278C86.6647 220.278 87.3554 220.13 88.0462 219.834L121.303 204.094H171.928L205.185 219.834C205.826 220.13 206.567 220.278 207.307 220.278C207.948 220.278 208.639 220.18 209.28 219.884C210.613 219.291 211.599 218.157 211.994 216.775C227.981 164.176 200.695 145.031 190.481 139.85ZM146.616 115.175C134.477 115.175 124.609 105.307 124.609 93.1687C124.609 81.0305 134.477 71.1621 146.616 71.1621C158.754 71.1621 168.622 81.0305 168.622 93.1687C168.622 105.307 158.754 115.175 146.616 115.175Z" fill="#404141"/>
<path d="M166.893 233.034C159.732 249.865 146.592 271.077 146.592 271.077C146.592 271.077 133.463 249.862 126.31 233.03C123.14 225.572 128.639 217.31 136.743 217.31H156.461C164.568 217.31 170.067 225.575 166.893 233.034Z" fill="#404141"/>
</svg>
