<svg width="547" height="74" viewBox="0 0 547 74" fill="none" xmlns="http://www.w3.org/2000/svg">
<path d="M519.449 73.2498C514.009 73.2498 509.215 72.1618 505.067 69.9858C500.987 67.8098 497.791 64.7498 495.479 60.8058C493.235 56.8618 492.113 52.3058 492.113 47.1378V26.2278C492.113 21.0598 493.235 16.5378 495.479 12.6618C497.791 8.71777 500.987 5.65777 505.067 3.48177C509.215 1.30577 514.009 0.217773 519.449 0.217773C524.821 0.217773 529.581 1.27177 533.729 3.37977C537.877 5.41977 541.073 8.24177 543.317 11.8458C545.629 15.4498 546.785 19.4278 546.785 23.7798V24.2898C546.785 24.6298 546.649 24.9358 546.377 25.2078C546.173 25.4118 545.901 25.5138 545.561 25.5138H531.077C530.737 25.5138 530.431 25.4118 530.159 25.2078C529.955 24.9358 529.853 24.6298 529.853 24.2898C529.853 21.6378 528.901 19.3938 526.997 17.5578C525.161 15.6538 522.645 14.7018 519.449 14.7018C516.321 14.7018 513.805 15.7218 511.901 17.7618C509.997 19.8018 509.045 22.4538 509.045 25.7178V47.6478C509.045 50.9118 510.099 53.5638 512.207 55.6038C514.315 57.6438 516.967 58.6638 520.163 58.6638C523.155 58.6638 525.569 57.8818 527.405 56.3178C529.241 54.6858 530.159 52.4418 530.159 49.5858V46.7298C530.159 46.3898 529.989 46.2198 529.649 46.2198H519.449C519.109 46.2198 518.803 46.1178 518.531 45.9138C518.327 45.6418 518.225 45.3358 518.225 44.9958V33.7758C518.225 33.4358 518.327 33.1638 518.531 32.9598C518.803 32.6878 519.109 32.5518 519.449 32.5518H545.561C545.901 32.5518 546.173 32.6878 546.377 32.9598C546.649 33.1638 546.785 33.4358 546.785 33.7758V47.6478C546.785 52.7478 545.629 57.2358 543.317 61.1118C541.073 64.9878 537.877 67.9798 533.729 70.0878C529.649 72.1958 524.889 73.2498 519.449 73.2498Z" fill="#F78D1E"/>
<path d="M466.193 2.25721C466.193 1.91721 466.295 1.64521 466.499 1.4412C466.771 1.1692 467.077 1.0332 467.417 1.0332H481.901C482.241 1.0332 482.513 1.1692 482.717 1.4412C482.989 1.64521 483.125 1.91721 483.125 2.25721V71.2092C483.125 71.5492 482.989 71.8552 482.717 72.1272C482.513 72.3312 482.241 72.4332 481.901 72.4332H468.029C467.349 72.4332 466.873 72.1612 466.601 71.6172L443.141 32.6532C443.005 32.4492 442.869 32.3812 442.733 32.4492C442.597 32.4492 442.529 32.5852 442.529 32.8572L442.631 71.2092C442.631 71.5492 442.495 71.8552 442.223 72.1272C442.019 72.3312 441.747 72.4332 441.407 72.4332H426.923C426.583 72.4332 426.277 72.3312 426.005 72.1272C425.801 71.8552 425.699 71.5492 425.699 71.2092V2.25721C425.699 1.91721 425.801 1.64521 426.005 1.4412C426.277 1.1692 426.583 1.0332 426.923 1.0332H440.897C441.577 1.0332 442.053 1.3052 442.325 1.84921L465.683 40.7112C465.819 40.9152 465.955 41.0172 466.091 41.0172C466.227 40.9492 466.295 40.7792 466.295 40.5072L466.193 2.25721Z" fill="#F78D1E"/>
<path d="M399.929 72.4332C399.589 72.4332 399.283 72.3312 399.011 72.1272C398.807 71.8552 398.705 71.5492 398.705 71.2092V2.25721C398.705 1.91721 398.807 1.64521 399.011 1.4412C399.283 1.1692 399.589 1.0332 399.929 1.0332H414.413C414.753 1.0332 415.025 1.1692 415.229 1.4412C415.501 1.64521 415.637 1.91721 415.637 2.25721V71.2092C415.637 71.5492 415.501 71.8552 415.229 72.1272C415.025 72.3312 414.753 72.4332 414.413 72.4332H399.929Z" fill="#F78D1E"/>
<path d="M363.553 73.2498C357.909 73.2498 352.979 72.3658 348.763 70.5978C344.615 68.7618 341.385 66.1778 339.073 62.8458C336.829 59.4458 335.707 55.5358 335.707 51.1158V49.1778C335.707 48.8378 335.809 48.5658 336.013 48.3618C336.285 48.0898 336.591 47.9538 336.931 47.9538H351.109C351.449 47.9538 351.721 48.0898 351.925 48.3618C352.197 48.5658 352.333 48.8378 352.333 49.1778V50.4018C352.333 52.6458 353.455 54.6178 355.699 56.3178C357.943 57.9498 360.969 58.7658 364.777 58.7658C367.769 58.7658 369.979 58.1198 371.407 56.8278C372.835 55.5358 373.549 54.0398 373.549 52.3398C373.549 50.9798 373.107 49.8918 372.223 49.0758C371.407 48.1918 370.285 47.4778 368.857 46.9338C367.429 46.3218 365.219 45.5058 362.227 44.4858C361.819 44.2818 361.411 44.1458 361.003 44.0778C360.595 43.9418 360.221 43.8058 359.881 43.6698C355.461 42.2418 351.619 40.7118 348.355 39.0798C345.091 37.3798 342.303 35.0678 339.991 32.1438C337.679 29.1518 336.523 25.4798 336.523 21.1278C336.523 16.9118 337.611 13.2398 339.787 10.1118C342.031 6.91577 345.125 4.46777 349.069 2.76777C353.013 1.06777 357.467 0.217773 362.431 0.217773C367.667 0.217773 372.359 1.16977 376.507 3.07377C380.723 4.97777 384.021 7.66377 386.401 11.1318C388.781 14.5998 389.971 18.5778 389.971 23.0658V24.4938C389.971 24.8338 389.835 25.1398 389.563 25.4118C389.359 25.6158 389.087 25.7178 388.747 25.7178H374.569C374.229 25.7178 373.923 25.6158 373.651 25.4118C373.447 25.1398 373.345 24.8338 373.345 24.4938V23.7798C373.345 21.3998 372.291 19.2918 370.183 17.4558C368.075 15.6198 365.253 14.7018 361.717 14.7018C359.065 14.7018 356.991 15.2458 355.495 16.3338C353.999 17.4218 353.251 18.9518 353.251 20.9238C353.251 22.4198 353.727 23.6778 354.679 24.6978C355.631 25.6498 357.093 26.5678 359.065 27.4518C361.105 28.2678 364.199 29.3558 368.347 30.7158C373.107 32.3478 376.813 33.7758 379.465 34.9998C382.117 36.2238 384.599 38.2298 386.911 41.0178C389.291 43.7378 390.481 47.3418 390.481 51.8298C390.481 56.2498 389.359 60.0578 387.115 63.2538C384.871 66.4498 381.709 68.9318 377.629 70.6998C373.617 72.3998 368.925 73.2498 363.553 73.2498Z" fill="#F78D1E"/>
<path d="M311.874 72.4332C311.534 72.4332 311.228 72.3312 310.956 72.1272C310.752 71.8552 310.65 71.5492 310.65 71.2092V2.25721C310.65 1.91721 310.752 1.64521 310.956 1.4412C311.228 1.1692 311.534 1.0332 311.874 1.0332H326.358C326.698 1.0332 326.97 1.1692 327.174 1.4412C327.446 1.64521 327.582 1.91721 327.582 2.25721V71.2092C327.582 71.5492 327.446 71.8552 327.174 72.1272C326.97 72.3312 326.698 72.4332 326.358 72.4332H311.874Z" fill="#F78D1E"/>
<path d="M274.41 73.2498C268.97 73.2498 264.176 72.1618 260.028 69.9858C255.948 67.8098 252.752 64.7498 250.44 60.8058C248.196 56.8618 247.074 52.3058 247.074 47.1378V26.2278C247.074 21.0598 248.196 16.5378 250.44 12.6618C252.752 8.71777 255.948 5.65777 260.028 3.48177C264.176 1.30577 268.97 0.217773 274.41 0.217773C279.782 0.217773 284.542 1.27177 288.69 3.37977C292.838 5.41977 296.034 8.24177 298.278 11.8458C300.59 15.4498 301.746 19.4278 301.746 23.7798V24.2898C301.746 24.6298 301.61 24.9358 301.338 25.2078C301.134 25.4118 300.862 25.5138 300.522 25.5138H286.038C285.698 25.5138 285.392 25.4118 285.12 25.2078C284.916 24.9358 284.814 24.6298 284.814 24.2898C284.814 21.6378 283.862 19.3938 281.958 17.5578C280.122 15.6538 277.606 14.7018 274.41 14.7018C271.282 14.7018 268.766 15.7218 266.862 17.7618C264.958 19.8018 264.006 22.4538 264.006 25.7178V47.6478C264.006 50.9118 265.06 53.5638 267.168 55.6038C269.276 57.6438 271.928 58.6638 275.124 58.6638C278.116 58.6638 280.53 57.8818 282.366 56.3178C284.202 54.6858 285.12 52.4418 285.12 49.5858V46.7298C285.12 46.3898 284.95 46.2198 284.61 46.2198H274.41C274.07 46.2198 273.764 46.1178 273.492 45.9138C273.288 45.6418 273.186 45.3358 273.186 44.9958V33.7758C273.186 33.4358 273.288 33.1638 273.492 32.9598C273.764 32.6878 274.07 32.5518 274.41 32.5518H300.522C300.862 32.5518 301.134 32.6878 301.338 32.9598C301.61 33.1638 301.746 33.4358 301.746 33.7758V47.6478C301.746 52.7478 300.59 57.2358 298.278 61.1118C296.034 64.9878 292.838 67.9798 288.69 70.0878C284.61 72.1958 279.85 73.2498 274.41 73.2498Z" fill="#F78D1E"/>
<path d="M223.791 72.4332C223.111 72.4332 222.635 72.1272 222.363 71.5152L210.327 44.3832C210.191 44.1112 209.987 43.9752 209.715 43.9752H202.983C202.643 43.9752 202.473 44.1452 202.473 44.4852V71.2092C202.473 71.5492 202.337 71.8552 202.065 72.1272C201.861 72.3312 201.589 72.4332 201.249 72.4332H186.765C186.425 72.4332 186.119 72.3312 185.847 72.1272C185.643 71.8552 185.541 71.5492 185.541 71.2092V2.25721C185.541 1.91721 185.643 1.64521 185.847 1.4412C186.119 1.1692 186.425 1.0332 186.765 1.0332H217.059C221.547 1.0332 225.491 1.9512 228.891 3.7872C232.291 5.62321 234.909 8.24121 236.745 11.6412C238.649 14.9732 239.601 18.8152 239.601 23.1672C239.601 27.7232 238.479 31.6672 236.235 34.9992C233.991 38.3312 230.863 40.7452 226.851 42.2412C226.511 42.3772 226.409 42.6152 226.545 42.9552L240.009 71.0052C240.145 71.2772 240.213 71.4812 240.213 71.6172C240.213 72.1612 239.839 72.4332 239.091 72.4332H223.791ZM202.983 15.5172C202.643 15.5172 202.473 15.6872 202.473 16.0272V30.5112C202.473 30.8512 202.643 31.0212 202.983 31.0212H214.305C216.821 31.0212 218.861 30.3412 220.425 28.9812C221.989 27.5532 222.771 25.6832 222.771 23.3712C222.771 20.9912 221.989 19.0872 220.425 17.6592C218.861 16.2312 216.821 15.5172 214.305 15.5172H202.983Z" fill="#F78D1E"/>
<path d="M177.366 14.2932C177.366 14.6332 177.23 14.9392 176.958 15.2112C176.754 15.4152 176.482 15.5172 176.142 15.5172H144.114C143.774 15.5172 143.604 15.6872 143.604 16.0272V28.5732C143.604 28.9132 143.774 29.0832 144.114 29.0832H164.616C164.956 29.0832 165.228 29.2192 165.432 29.4912C165.704 29.6952 165.84 29.9672 165.84 30.3072V42.2412C165.84 42.5812 165.704 42.8872 165.432 43.1592C165.228 43.3632 164.956 43.4652 164.616 43.4652H144.114C143.774 43.4652 143.604 43.6352 143.604 43.9752V57.4392C143.604 57.7792 143.774 57.9492 144.114 57.9492H176.142C176.482 57.9492 176.754 58.0852 176.958 58.3572C177.23 58.5612 177.366 58.8332 177.366 59.1732V71.2092C177.366 71.5492 177.23 71.8552 176.958 72.1272C176.754 72.3312 176.482 72.4332 176.142 72.4332H127.896C127.556 72.4332 127.25 72.3312 126.978 72.1272C126.774 71.8552 126.672 71.5492 126.672 71.2092V2.25721C126.672 1.91721 126.774 1.64521 126.978 1.4412C127.25 1.1692 127.556 1.0332 127.896 1.0332H176.142C176.482 1.0332 176.754 1.1692 176.958 1.4412C177.23 1.64521 177.366 1.91721 177.366 2.25721V14.2932Z" fill="#F78D1E"/>
<path d="M99.9296 2.25721C99.9296 1.91721 100.032 1.64521 100.236 1.4412C100.508 1.1692 100.814 1.0332 101.154 1.0332H115.638C115.978 1.0332 116.25 1.1692 116.454 1.4412C116.726 1.64521 116.862 1.91721 116.862 2.25721V71.2092C116.862 71.5492 116.726 71.8552 116.454 72.1272C116.25 72.3312 115.978 72.4332 115.638 72.4332H101.766C101.086 72.4332 100.61 72.1612 100.338 71.6172L76.8775 32.6532C76.7415 32.4492 76.6055 32.3812 76.4695 32.4492C76.3335 32.4492 76.2655 32.5852 76.2655 32.8572L76.3675 71.2092C76.3675 71.5492 76.2315 71.8552 75.9595 72.1272C75.7555 72.3312 75.4835 72.4332 75.1435 72.4332H60.6595C60.3195 72.4332 60.0135 72.3312 59.7415 72.1272C59.5375 71.8552 59.4355 71.5492 59.4355 71.2092V2.25721C59.4355 1.91721 59.5375 1.64521 59.7415 1.4412C60.0135 1.1692 60.3195 1.0332 60.6595 1.0332H74.6335C75.3135 1.0332 75.7895 1.3052 76.0615 1.84921L99.4195 40.7112C99.5555 40.9152 99.6915 41.0172 99.8275 41.0172C99.9635 40.9492 100.032 40.7792 100.032 40.5072L99.9296 2.25721Z" fill="#F78D1E"/>
<path d="M51.2604 14.2932C51.2604 14.6332 51.1244 14.9392 50.8524 15.2112C50.6484 15.4152 50.3764 15.5172 50.0364 15.5172H18.0084C17.6684 15.5172 17.4984 15.6872 17.4984 16.0272V28.5732C17.4984 28.9132 17.6684 29.0832 18.0084 29.0832H38.5104C38.8504 29.0832 39.1224 29.2192 39.3264 29.4912C39.5984 29.6952 39.7344 29.9672 39.7344 30.3072V42.2412C39.7344 42.5812 39.5984 42.8872 39.3264 43.1592C39.1224 43.3632 38.8504 43.4652 38.5104 43.4652H18.0084C17.6684 43.4652 17.4984 43.6352 17.4984 43.9752V57.4392C17.4984 57.7792 17.6684 57.9492 18.0084 57.9492H50.0364C50.3764 57.9492 50.6484 58.0852 50.8524 58.3572C51.1244 58.5612 51.2604 58.8332 51.2604 59.1732V71.2092C51.2604 71.5492 51.1244 71.8552 50.8524 72.1272C50.6484 72.3312 50.3764 72.4332 50.0364 72.4332H1.79041C1.45041 72.4332 1.14441 72.3312 0.872406 72.1272C0.668406 71.8552 0.566406 71.5492 0.566406 71.2092V2.25721C0.566406 1.91721 0.668406 1.64521 0.872406 1.4412C1.14441 1.1692 1.45041 1.0332 1.79041 1.0332H50.0364C50.3764 1.0332 50.6484 1.1692 50.8524 1.4412C51.1244 1.64521 51.2604 1.91721 51.2604 2.25721V14.2932Z" fill="#F78D1E"/>
</svg>
