<svg width="292" height="292" viewBox="0 0 292 292" fill="none" xmlns="http://www.w3.org/2000/svg">
<path fill-rule="evenodd" clip-rule="evenodd" d="M100.364 133.7L84.4192 126.374C76.5839 135.301 63.5252 138.445 52.1883 133.233C38.3622 126.883 32.2947 110.501 38.6487 96.6769C44.9988 82.8508 61.381 76.7833 75.2053 83.1373C86.5439 88.3445 92.6648 100.301 90.9957 112.06L106.941 119.386C111.034 113.37 116.369 108.526 122.433 105.046L116.334 88.5786C104.483 89.3498 93.0253 82.3389 88.6917 70.6382C83.408 56.3724 90.7017 40.4976 104.968 35.2139C119.233 29.9302 135.108 37.2239 140.392 51.4898C144.725 63.1905 140.599 75.9733 131.105 83.1076L137.204 99.5749C144.071 98.2655 151.275 98.466 158.3 100.364L165.626 84.4192C156.699 76.5839 153.555 63.5252 158.766 52.1884C165.116 38.3623 181.499 32.2947 195.323 38.6487C209.149 44.9989 215.217 61.381 208.863 75.2053C203.655 86.5439 191.699 92.6649 179.939 90.9957L172.614 106.941C178.63 111.034 183.474 116.369 186.954 122.433L203.421 116.334C202.65 104.483 209.661 93.0253 221.362 88.6917C235.627 83.408 251.502 90.7017 256.786 104.968C262.07 119.233 254.776 135.108 240.51 140.392C228.809 144.725 216.026 140.599 208.892 131.105L192.425 137.204C193.734 144.071 193.534 151.275 191.636 158.3L207.581 165.626C215.416 156.699 228.475 153.555 239.811 158.766C253.638 165.116 259.705 181.499 253.351 195.323C247.001 209.149 230.619 215.217 216.794 208.863C205.456 203.655 199.335 191.699 201.004 179.939L185.059 172.614C180.966 178.63 175.631 183.474 169.567 186.954L175.666 203.421C187.517 202.65 198.974 209.661 203.308 221.362C208.592 235.627 201.298 251.502 187.032 256.786C172.766 262.07 156.892 254.776 151.608 240.51C147.274 228.809 151.401 216.027 160.895 208.892L154.796 192.425C147.928 193.734 140.725 193.534 133.7 191.636L126.374 207.581C135.301 215.416 138.445 228.475 133.233 239.811C126.883 253.638 110.501 259.705 96.6769 253.351C82.8508 247.001 76.7832 230.619 83.1372 216.795C88.3445 205.456 100.301 199.335 112.06 201.004L119.386 185.059C113.37 180.966 108.526 175.631 105.046 169.567L88.5786 175.666C89.3498 187.517 82.3389 198.974 70.6381 203.308C56.3723 208.592 40.4976 201.298 35.2139 187.032C29.9302 172.766 37.2239 156.892 51.4897 151.608C63.1904 147.274 75.9733 151.401 83.1076 160.895L99.5749 154.796C98.2655 147.928 98.466 140.725 100.364 133.7ZM178.882 74.4312C184.807 77.1534 191.827 74.5536 194.549 68.6288C197.271 62.704 194.671 55.6847 188.746 52.9625C182.822 50.2403 175.802 52.8401 173.08 58.7649C170.358 64.6897 172.958 71.709 178.882 74.4312ZM74.4311 113.117C77.1533 107.193 74.5535 100.173 68.6287 97.4511C62.7039 94.7289 55.6846 97.3286 52.9625 103.253C50.2403 109.178 52.8401 116.198 58.7649 118.92C64.6897 121.642 71.709 119.042 74.4311 113.117ZM113.117 217.569C107.192 214.846 100.173 217.446 97.451 223.371C94.7288 229.296 97.3286 236.315 103.253 239.037C109.178 241.759 116.197 239.16 118.92 233.235C121.642 227.31 119.042 220.291 113.117 217.569ZM217.569 178.882C214.846 184.807 217.446 191.827 223.371 194.549C229.296 197.271 236.315 194.671 239.037 188.746C241.759 182.822 239.16 175.802 233.235 173.08C227.31 170.358 220.291 172.958 217.569 178.882Z" fill="#404141"/>
</svg>
