<svg width="292" height="292" viewBox="0 0 292 292" fill="none" xmlns="http://www.w3.org/2000/svg">
<path d="M178.906 113.095C169.834 104.025 157.915 99.4883 146 99.4883C134.082 99.4883 122.169 104.023 113.095 113.095C94.9518 131.239 94.9518 160.762 113.095 178.905C131.239 197.049 160.762 197.049 178.906 178.905C197.049 160.762 197.049 131.239 178.906 113.095ZM163.412 163.411C153.797 173.024 138.203 173.024 128.589 163.411C118.977 153.797 118.977 138.203 128.589 128.589C138.203 118.976 153.797 118.976 163.412 128.589C173.024 138.203 173.024 153.797 163.412 163.411Z" fill="#404141"/>
<path d="M257.26 123.838L245.005 121.794C238.733 120.743 233.5 116.544 231.001 110.547L230.966 110.464C230.904 110.312 230.838 110.158 230.771 110.006C228.249 103.992 228.965 97.2961 232.691 92.0772L239.659 82.3089C241.721 79.4175 241.392 75.459 238.882 72.9489L218.369 52.4313C215.858 49.9194 211.897 49.59 209.006 51.6561L198.892 58.8784C193.713 62.5719 187.072 63.3132 181.094 60.8496L180.625 60.6563C174.513 58.1784 170.228 52.9129 169.17 46.5697L167.194 34.7371C166.606 31.2334 163.575 28.666 160.023 28.666H131.007C127.455 28.666 124.422 31.2334 123.836 34.7389L121.794 46.994C120.743 53.2656 116.542 58.4989 110.541 61L110.457 61.0358C110.307 61.0985 110.156 61.1611 110.008 61.2274C103.994 63.75 97.2961 63.0356 92.0754 59.3099L82.3071 52.3418C79.4157 50.2793 75.459 50.6069 72.9471 53.1188L52.4313 73.631C49.9176 76.1429 49.59 80.1032 51.6543 82.9946L58.8766 93.1102C62.5702 98.2879 63.3114 104.928 60.846 110.91L60.6563 111.375C58.1766 117.49 52.9111 121.772 46.5697 122.83L34.7354 124.807C31.2334 125.392 28.666 128.423 28.666 131.975V160.992C28.666 164.544 31.2334 167.577 34.7389 168.16L46.994 170.205C53.2656 171.256 58.4989 175.454 60.9982 181.452L61.0322 181.535C61.0949 181.687 61.1611 181.841 61.2274 181.993C63.75 188.007 63.0339 194.703 59.3081 199.922L52.34 209.69C50.2775 212.581 50.6069 216.54 53.117 219.05L73.6292 239.567C76.1393 242.079 80.1014 242.407 82.9928 240.343L93.1066 233.12C98.2861 229.429 104.927 228.686 110.905 231.149L111.374 231.342C117.486 233.82 121.77 239.086 122.828 245.429L124.805 257.262C125.39 260.765 128.422 263.333 131.974 263.333H160.99C164.544 263.333 167.577 260.765 168.16 257.26L170.205 245.005C171.254 238.733 175.454 233.5 181.456 230.999L181.542 230.963C181.69 230.9 181.841 230.838 181.989 230.771C188.005 228.249 194.703 228.963 199.922 232.689L209.69 239.657C212.581 241.719 216.54 241.39 219.05 238.88L239.567 218.368C242.079 215.856 242.407 211.896 240.343 209.004L233.12 198.889C229.427 193.711 228.686 187.07 231.151 181.089L231.342 180.623C233.82 174.509 239.086 170.227 245.429 169.168L257.262 167.192C260.765 166.606 263.333 163.575 263.333 160.021V131.007C263.333 127.455 260.765 124.422 257.26 123.838ZM145.999 207.042C130.361 207.042 114.722 201.089 102.816 189.183C79.0039 165.371 79.0039 126.628 102.816 102.816C126.628 79.0039 165.371 79.0039 189.183 102.816C212.995 126.628 212.995 165.371 189.183 189.183C177.277 201.089 161.638 207.042 145.999 207.042Z" fill="#404141"/>
</svg>
