<svg width="408" height="20" viewBox="0 0 408 20" fill="none" xmlns="http://www.w3.org/2000/svg">
<path opacity="0.71" d="M402.693 20L402.693 -1.03511e-06L408 -5.71132e-07L408 20L402.693 20ZM349.696 20L349.696 -5.66822e-06L360.285 -4.74249e-06L360.285 20L349.696 20ZM302.032 20L302.032 -9.83513e-06L307.339 -9.37115e-06L307.339 20L302.032 20ZM249.036 20L249.036 -1.44682e-05L259.625 -1.35425e-05L259.625 20L249.036 20ZM201.346 20L201.346 -1.86374e-05L206.654 -1.81734e-05L206.654 20L201.346 20ZM148.375 20L148.375 -2.32683e-05L158.964 -2.23425e-05L158.964 20L148.375 20ZM100.686 20L100.686 -2.74374e-05L105.993 -2.69734e-05L105.993 20L100.686 20ZM47.6893 20L47.6893 -3.20705e-05L58.2785 -3.11448e-05L58.2785 20L47.6893 20ZM5.30728 20L5.30728 -3.57756e-05L1.74846e-06 -3.62396e-05L0 20L5.30728 20Z" fill="url(#paint0_linear_2011_155)"/>
<defs>
<linearGradient id="paint0_linear_2011_155" x1="468.842" y1="28.6251" x2="390.297" y2="-164.108" gradientUnits="userSpaceOnUse">
<stop stop-color="#E8ECED"/>
<stop offset="1" stop-color="#353838"/>
</linearGradient>
</defs>
</svg>
