<svg width="292" height="292" viewBox="0 0 292 292" fill="none" xmlns="http://www.w3.org/2000/svg">
<path d="M171.384 46.2139C172.136 46.7054 173.024 46.9447 173.922 46.9014L204.275 45.209L217.92 72.2393C218.323 73.0388 218.971 73.6879 219.771 74.0908L246.792 87.7891L245.101 118.149C245.057 119.048 245.299 119.937 245.788 120.689L262.5 146.027L245.788 171.362C245.313 172.127 245.041 173.001 244.995 173.901L246.687 204.263L219.665 217.909C218.866 218.312 218.217 218.961 217.814 219.761L204.171 246.791L173.814 245.097C172.918 245.055 172.03 245.295 171.278 245.784L145.946 262.5L120.616 245.784C119.92 245.344 119.112 245.107 118.288 245.097H118.078L87.7246 246.791L74.0801 219.761C73.6773 218.961 73.0289 218.312 72.2295 217.909L45.2061 204.263L46.8975 173.901C46.9407 173.003 46.7014 172.116 46.2119 171.362L29.5 146.027L46.2119 120.638C46.7014 119.884 46.9407 118.995 46.8975 118.099L45.2061 87.7354L72.2295 74.0908C73.0289 73.6879 73.6773 73.0388 74.0801 72.2393L87.7754 45.209L118.132 46.9014C119.028 46.9447 119.916 46.7054 120.668 46.2139L146 29.5L171.384 46.2139Z" fill="#404141"/>
</svg>
