<svg width="50" height="50" viewBox="0 0 50 50" fill="none" xmlns="http://www.w3.org/2000/svg">
<path d="M29.7711 1.77606L27.0845 19.7297H41.3187C41.6915 19.7297 42 20.038 42 20.4105C42 20.5775 41.94 20.7317 41.8372 20.8473L21.45 48.7219C21.2273 49.026 20.803 49.0901 20.4988 48.8675C20.2888 48.7176 20.1946 48.465 20.2288 48.2253L22.9154 30.2673H8.6813C8.30427 30.2673 8 29.9633 8 29.5908C8 29.4238 8.05997 29.2697 8.15858 29.1498L28.55 1.27502C28.7727 0.975278 29.197 0.911027 29.5012 1.12942C29.7111 1.28366 29.8054 1.53625 29.7711 1.77606Z" fill="#2B2F2F"/>
</svg>
