<svg width="1439" height="468" viewBox="0 0 1439 468" fill="none" xmlns="http://www.w3.org/2000/svg">
<g opacity="0.44">
<path d="M1051.13 0.162109C1071.91 21.6576 1084.71 50.7732 1084.71 82.8458V96.9297H1150.19V391.706H1247.6V96.9297H1438.97V0.162109H1051.13Z" fill="url(#paint0_linear_430_128)"/>
<path d="M1051.13 0.162109C1071.91 21.6576 1084.71 50.7732 1084.71 82.8458V96.9297H1150.19V391.706H1247.6V96.9297H1438.97V0.162109H1051.13Z" fill="#AEAEAE"/>
<path d="M964.242 0.901174L964.28 0.919729C1007.9 0.919729 1046.88 35.8357 1046.88 82.8641V187.669C1046.88 237.673 1004.16 269.708 964.28 269.708H902.824L1015.7 392.52H885.613L757.147 247.265V173.566H942.319C950.047 173.566 957.908 167.254 957.908 158.022V113.686C957.908 105.706 951.535 98.2752 942.281 98.2752H620.057V82.8455C620.057 51.152 607.541 22.3208 587.182 0.901174H964.242Z" fill="url(#paint1_linear_430_128)"/>
<path d="M964.242 0.901174L964.28 0.919729C1007.9 0.919729 1046.88 35.8357 1046.88 82.8641V187.669C1046.88 237.673 1004.16 269.708 964.28 269.708H902.824L1015.7 392.52H885.613L757.147 247.265V173.566H942.319C950.047 173.566 957.908 167.254 957.908 158.022V113.686C957.908 105.706 951.535 98.2752 942.281 98.2752H620.057V82.8455C620.057 51.152 607.541 22.3208 587.182 0.901174H964.242Z" fill="#AEAEAE"/>
<path d="M687.77 392.502H597.483V226.13L687.77 178.382V392.502Z" fill="url(#paint2_linear_430_128)"/>
<path d="M687.77 392.502H597.483V226.13L687.77 178.382V392.502Z" fill="#AEAEAE"/>
<path d="M494.928 383.366C508.723 379.252 512.367 375.253 512.367 375.253C534.576 359.179 549.077 333.228 549.077 303.829V90.3711C549.077 41.5608 509.257 2.00079 460.126 2.00079H299.53V97.9344H430.285C442.572 97.9344 452.513 107.829 452.513 120.036V274.182C452.513 277.499 451.712 280.646 450.395 283.47C450.395 283.47 447.342 292.417 432.937 295.355L319.144 296.265H299.53V392.199H386.706L439.405 467.016H553.847L494.928 383.366Z" fill="url(#paint3_linear_430_128)"/>
<path d="M494.928 383.366C508.723 379.252 512.367 375.253 512.367 375.253C534.576 359.179 549.077 333.228 549.077 303.829V90.3711C549.077 41.5608 509.257 2.00079 460.126 2.00079H299.53V97.9344H430.285C442.572 97.9344 452.513 107.829 452.513 120.036V274.182C452.513 277.499 451.712 280.646 450.395 283.47C450.395 283.47 447.342 292.417 432.937 295.355L319.144 296.265H299.53V392.199H386.706L439.405 467.016H553.847L494.928 383.366Z" fill="#AEAEAE"/>
<path d="M251.734 157.949V236.292H-1V158.707L-0.313119 157.949H251.734Z" fill="url(#paint4_linear_430_128)"/>
<path d="M251.734 157.949V236.292H-1V158.707L-0.313119 157.949H251.734Z" fill="#AEAEAE"/>
<path d="M251.734 1.79376V98.1254L80.8533 1.79376H251.734Z" fill="url(#paint5_linear_430_128)"/>
<path d="M251.734 1.79376V98.1254L80.8533 1.79376H251.734Z" fill="#AEAEAE"/>
<path d="M237.29 131.696L26.2463 16.1999C19.4919 21.6212 13.7107 28.3883 9.26505 36.141L184.324 131.696H237.29Z" fill="url(#paint6_linear_430_128)"/>
<path d="M237.29 131.696L26.2463 16.1999C19.4919 21.6212 13.7107 28.3883 9.26505 36.141L184.324 131.696H237.29Z" fill="#AEAEAE"/>
<path d="M251.734 296.437V391.973H82.2271L251.734 296.437Z" fill="url(#paint7_linear_430_128)"/>
<path d="M251.734 296.437V391.973H82.2271L251.734 296.437Z" fill="#AEAEAE"/>
<path d="M-1 262.583V318.862C-1 328.529 0.736283 337.741 3.86541 346.195L157.231 262.583H-1Z" fill="url(#paint8_linear_430_128)"/>
<path d="M-1 262.583V318.862C-1 328.529 0.736283 337.741 3.86541 346.195L157.231 262.583H-1Z" fill="#AEAEAE"/>
<path d="M251.734 262.564V284.249L56.2019 391.158C45.4026 389.376 35.4619 384.827 26.9904 378.173L238.416 262.564H251.734Z" fill="url(#paint9_linear_430_128)"/>
<path d="M251.734 262.564V284.249L56.2019 391.158C45.4026 389.376 35.4619 384.827 26.9904 378.173L238.416 262.564H251.734Z" fill="#AEAEAE"/>
<path d="M3.71277 47.9882C0.679042 56.3097 -1 65.3893 -1 74.905V131.696H156.792L3.71277 47.9882Z" fill="url(#paint10_linear_430_128)"/>
<path d="M3.71277 47.9882C0.679042 56.3097 -1 65.3893 -1 74.905V131.696H156.792L3.71277 47.9882Z" fill="#AEAEAE"/>
</g>
<defs>
<linearGradient id="paint0_linear_430_128" x1="-15.2754" y1="20.8591" x2="304.94" y2="320.368" gradientUnits="userSpaceOnUse">
<stop stop-color="#E0E5E6"/>
<stop offset="1" stop-color="#505353"/>
</linearGradient>
<linearGradient id="paint1_linear_430_128" x1="-15.2754" y1="20.8591" x2="304.94" y2="320.368" gradientUnits="userSpaceOnUse">
<stop stop-color="#E0E5E6"/>
<stop offset="1" stop-color="#505353"/>
</linearGradient>
<linearGradient id="paint2_linear_430_128" x1="-15.2754" y1="20.8591" x2="304.94" y2="320.368" gradientUnits="userSpaceOnUse">
<stop stop-color="#E0E5E6"/>
<stop offset="1" stop-color="#505353"/>
</linearGradient>
<linearGradient id="paint3_linear_430_128" x1="-15.2754" y1="20.8591" x2="304.94" y2="320.368" gradientUnits="userSpaceOnUse">
<stop stop-color="#E0E5E6"/>
<stop offset="1" stop-color="#505353"/>
</linearGradient>
<linearGradient id="paint4_linear_430_128" x1="-15.2754" y1="20.8591" x2="304.94" y2="320.368" gradientUnits="userSpaceOnUse">
<stop stop-color="#E0E5E6"/>
<stop offset="1" stop-color="#505353"/>
</linearGradient>
<linearGradient id="paint5_linear_430_128" x1="-15.2754" y1="20.8591" x2="304.94" y2="320.368" gradientUnits="userSpaceOnUse">
<stop stop-color="#E0E5E6"/>
<stop offset="1" stop-color="#505353"/>
</linearGradient>
<linearGradient id="paint6_linear_430_128" x1="-15.2754" y1="20.8591" x2="304.94" y2="320.368" gradientUnits="userSpaceOnUse">
<stop stop-color="#E0E5E6"/>
<stop offset="1" stop-color="#505353"/>
</linearGradient>
<linearGradient id="paint7_linear_430_128" x1="-15.2754" y1="20.8591" x2="304.94" y2="320.368" gradientUnits="userSpaceOnUse">
<stop stop-color="#E0E5E6"/>
<stop offset="1" stop-color="#505353"/>
</linearGradient>
<linearGradient id="paint8_linear_430_128" x1="-15.2754" y1="20.8591" x2="304.94" y2="320.368" gradientUnits="userSpaceOnUse">
<stop stop-color="#E0E5E6"/>
<stop offset="1" stop-color="#505353"/>
</linearGradient>
<linearGradient id="paint9_linear_430_128" x1="-15.2754" y1="20.8591" x2="304.94" y2="320.368" gradientUnits="userSpaceOnUse">
<stop stop-color="#E0E5E6"/>
<stop offset="1" stop-color="#505353"/>
</linearGradient>
<linearGradient id="paint10_linear_430_128" x1="-15.2754" y1="20.8591" x2="304.94" y2="320.368" gradientUnits="userSpaceOnUse">
<stop stop-color="#E0E5E6"/>
<stop offset="1" stop-color="#505353"/>
</linearGradient>
</defs>
</svg>
