<svg width="1222" height="399" viewBox="0 0 1222 399" fill="none" xmlns="http://www.w3.org/2000/svg">
<g style="mix-blend-mode:overlay">
<path d="M891.945 2C909.521 20.1871 920.35 44.8215 920.35 71.9578V83.874H975.738V333.281H1058.13V83.874H1220V2H891.945Z" fill="url(#paint0_linear_774_593)" fill-opacity="0.49"/>
<path d="M818.451 2.62531L818.483 2.64101C855.377 2.64101 888.348 32.183 888.349 71.9732V160.647C888.349 202.956 852.214 230.06 818.483 230.06H766.501L861.978 333.97H751.943L643.28 211.071V148.715H799.908C806.444 148.715 813.093 143.374 813.093 135.564V98.0516C813.093 91.2996 807.703 85.0124 799.875 85.0124H527.322V71.9575C527.322 45.142 516.735 20.7483 499.515 2.62531H818.451Z" fill="url(#paint1_linear_774_593)" fill-opacity="0.49"/>
<path d="M584.597 333.954H508.228V193.189L584.597 152.79V333.954Z" fill="url(#paint2_linear_774_593)" fill-opacity="0.49"/>
<path d="M421.481 326.224C433.15 322.744 436.232 319.36 436.232 319.36C455.018 305.76 467.283 283.804 467.283 258.929V78.3249C467.283 37.027 433.602 3.55569 392.044 3.55569H256.203V84.724H366.803C377.196 84.724 385.605 93.0959 385.605 103.424V233.845C385.605 236.652 384.927 239.314 383.813 241.704C383.813 241.704 381.231 249.274 369.046 251.76L272.794 252.53H256.203V333.698H329.942L374.517 397H471.318L421.481 326.224Z" fill="url(#paint3_linear_774_593)" fill-opacity="0.49"/>
<path d="M215.775 135.502V201.787H2V136.143L2.581 135.502H215.775Z" fill="url(#paint4_linear_774_593)" fill-opacity="0.49"/>
<path d="M215.775 3.38052V84.8857L71.2357 3.38052H215.775Z" fill="url(#paint5_linear_774_593)" fill-opacity="0.49"/>
<path d="M203.558 113.289L25.0463 15.5694C19.3331 20.1563 14.4431 25.8818 10.6827 32.4414L158.757 113.289H203.558Z" fill="url(#paint6_linear_774_593)" fill-opacity="0.49"/>
<path d="M215.775 252.675V333.507H72.3977L215.775 252.675Z" fill="url(#paint7_linear_774_593)" fill-opacity="0.49"/>
<path d="M2 224.031V271.648C2 279.828 3.46864 287.622 6.11541 294.775L135.84 224.031H2Z" fill="url(#paint8_linear_774_593)" fill-opacity="0.49"/>
<path d="M215.775 224.015V242.363L50.3843 332.817C41.2497 331.31 32.8414 327.461 25.6757 321.831L204.51 224.015H215.775Z" fill="url(#paint9_linear_774_593)" fill-opacity="0.49"/>
<path d="M5.9863 42.4651C3.42022 49.5058 2 57.188 2 65.2391V113.289H135.468L5.9863 42.4651Z" fill="url(#paint10_linear_774_593)" fill-opacity="0.49"/>
<path d="M891.945 2C909.521 20.1871 920.35 44.8215 920.35 71.9578V83.874H975.738V333.281H1058.13V83.874H1220V2H891.945Z" stroke="url(#paint11_linear_774_593)" stroke-opacity="0.66" stroke-width="4"/>
<path d="M891.945 2C909.521 20.1871 920.35 44.8215 920.35 71.9578V83.874H975.738V333.281H1058.13V83.874H1220V2H891.945Z" stroke="url(#paint12_linear_774_593)" stroke-width="4"/>
<path d="M818.451 2.62531L818.483 2.64101C855.377 2.64101 888.348 32.183 888.349 71.9732V160.647C888.349 202.956 852.214 230.06 818.483 230.06H766.501L861.978 333.97H751.943L643.28 211.071V148.715H799.908C806.444 148.715 813.093 143.374 813.093 135.564V98.0516C813.093 91.2996 807.703 85.0124 799.875 85.0124H527.322V71.9575C527.322 45.142 516.735 20.7483 499.515 2.62531H818.451Z" stroke="url(#paint13_linear_774_593)" stroke-opacity="0.66" stroke-width="4"/>
<path d="M818.451 2.62531L818.483 2.64101C855.377 2.64101 888.348 32.183 888.349 71.9732V160.647C888.349 202.956 852.214 230.06 818.483 230.06H766.501L861.978 333.97H751.943L643.28 211.071V148.715H799.908C806.444 148.715 813.093 143.374 813.093 135.564V98.0516C813.093 91.2996 807.703 85.0124 799.875 85.0124H527.322V71.9575C527.322 45.142 516.735 20.7483 499.515 2.62531H818.451Z" stroke="url(#paint14_linear_774_593)" stroke-width="4"/>
<path d="M584.597 333.954H508.228V193.189L584.597 152.79V333.954Z" stroke="url(#paint15_linear_774_593)" stroke-opacity="0.66" stroke-width="4"/>
<path d="M584.597 333.954H508.228V193.189L584.597 152.79V333.954Z" stroke="url(#paint16_linear_774_593)" stroke-width="4"/>
<path d="M421.481 326.224C433.15 322.744 436.232 319.36 436.232 319.36C455.018 305.76 467.283 283.804 467.283 258.929V78.3249C467.283 37.027 433.602 3.55569 392.044 3.55569H256.203V84.724H366.803C377.196 84.724 385.605 93.0959 385.605 103.424V233.845C385.605 236.652 384.927 239.314 383.813 241.704C383.813 241.704 381.231 249.274 369.046 251.76L272.794 252.53H256.203V333.698H329.942L374.517 397H471.318L421.481 326.224Z" stroke="url(#paint17_linear_774_593)" stroke-opacity="0.66" stroke-width="4"/>
<path d="M421.481 326.224C433.15 322.744 436.232 319.36 436.232 319.36C455.018 305.76 467.283 283.804 467.283 258.929V78.3249C467.283 37.027 433.602 3.55569 392.044 3.55569H256.203V84.724H366.803C377.196 84.724 385.605 93.0959 385.605 103.424V233.845C385.605 236.652 384.927 239.314 383.813 241.704C383.813 241.704 381.231 249.274 369.046 251.76L272.794 252.53H256.203V333.698H329.942L374.517 397H471.318L421.481 326.224Z" stroke="url(#paint18_linear_774_593)" stroke-width="4"/>
<path d="M215.775 135.502V201.787H2V136.143L2.581 135.502H215.775Z" stroke="url(#paint19_linear_774_593)" stroke-opacity="0.66" stroke-width="4"/>
<path d="M215.775 135.502V201.787H2V136.143L2.581 135.502H215.775Z" stroke="url(#paint20_linear_774_593)" stroke-width="4"/>
<path d="M215.775 3.38052V84.8857L71.2357 3.38052H215.775Z" stroke="url(#paint21_linear_774_593)" stroke-opacity="0.66" stroke-width="4"/>
<path d="M215.775 3.38052V84.8857L71.2357 3.38052H215.775Z" stroke="url(#paint22_linear_774_593)" stroke-width="4"/>
<path d="M203.558 113.289L25.0463 15.5694C19.3331 20.1563 14.4431 25.8818 10.6827 32.4414L158.757 113.289H203.558Z" stroke="url(#paint23_linear_774_593)" stroke-opacity="0.66" stroke-width="4"/>
<path d="M203.558 113.289L25.0463 15.5694C19.3331 20.1563 14.4431 25.8818 10.6827 32.4414L158.757 113.289H203.558Z" stroke="url(#paint24_linear_774_593)" stroke-width="4"/>
<path d="M215.775 252.675V333.507H72.3977L215.775 252.675Z" stroke="url(#paint25_linear_774_593)" stroke-opacity="0.66" stroke-width="4"/>
<path d="M215.775 252.675V333.507H72.3977L215.775 252.675Z" stroke="url(#paint26_linear_774_593)" stroke-width="4"/>
<path d="M2 224.031V271.648C2 279.828 3.46864 287.622 6.11541 294.775L135.84 224.031H2Z" stroke="url(#paint27_linear_774_593)" stroke-opacity="0.66" stroke-width="4"/>
<path d="M2 224.031V271.648C2 279.828 3.46864 287.622 6.11541 294.775L135.84 224.031H2Z" stroke="url(#paint28_linear_774_593)" stroke-width="4"/>
<path d="M215.775 224.015V242.363L50.3843 332.817C41.2497 331.31 32.8414 327.461 25.6757 321.831L204.51 224.015H215.775Z" stroke="url(#paint29_linear_774_593)" stroke-opacity="0.66" stroke-width="4"/>
<path d="M215.775 224.015V242.363L50.3843 332.817C41.2497 331.31 32.8414 327.461 25.6757 321.831L204.51 224.015H215.775Z" stroke="url(#paint30_linear_774_593)" stroke-width="4"/>
<path d="M5.9863 42.4651C3.42022 49.5058 2 57.188 2 65.2391V113.289H135.468L5.9863 42.4651Z" stroke="url(#paint31_linear_774_593)" stroke-opacity="0.66" stroke-width="4"/>
<path d="M5.9863 42.4651C3.42022 49.5058 2 57.188 2 65.2391V113.289H135.468L5.9863 42.4651Z" stroke="url(#paint32_linear_774_593)" stroke-width="4"/>
</g>
<defs>
<linearGradient id="paint0_linear_774_593" x1="43.4467" y1="244.267" x2="1201.42" y2="115.31" gradientUnits="userSpaceOnUse">
<stop stop-color="#3F3F3F"/>
<stop offset="1" stop-color="#4B4C4E"/>
</linearGradient>
<linearGradient id="paint1_linear_774_593" x1="43.4467" y1="244.267" x2="1201.42" y2="115.31" gradientUnits="userSpaceOnUse">
<stop stop-color="#3F3F3F"/>
<stop offset="1" stop-color="#4B4C4E"/>
</linearGradient>
<linearGradient id="paint2_linear_774_593" x1="43.4467" y1="244.267" x2="1201.42" y2="115.31" gradientUnits="userSpaceOnUse">
<stop stop-color="#3F3F3F"/>
<stop offset="1" stop-color="#4B4C4E"/>
</linearGradient>
<linearGradient id="paint3_linear_774_593" x1="43.4467" y1="244.267" x2="1201.42" y2="115.31" gradientUnits="userSpaceOnUse">
<stop stop-color="#3F3F3F"/>
<stop offset="1" stop-color="#4B4C4E"/>
</linearGradient>
<linearGradient id="paint4_linear_774_593" x1="43.4467" y1="244.267" x2="1201.42" y2="115.31" gradientUnits="userSpaceOnUse">
<stop stop-color="#3F3F3F"/>
<stop offset="1" stop-color="#4B4C4E"/>
</linearGradient>
<linearGradient id="paint5_linear_774_593" x1="43.4467" y1="244.267" x2="1201.42" y2="115.31" gradientUnits="userSpaceOnUse">
<stop stop-color="#3F3F3F"/>
<stop offset="1" stop-color="#4B4C4E"/>
</linearGradient>
<linearGradient id="paint6_linear_774_593" x1="43.4467" y1="244.267" x2="1201.42" y2="115.31" gradientUnits="userSpaceOnUse">
<stop stop-color="#3F3F3F"/>
<stop offset="1" stop-color="#4B4C4E"/>
</linearGradient>
<linearGradient id="paint7_linear_774_593" x1="43.4467" y1="244.267" x2="1201.42" y2="115.31" gradientUnits="userSpaceOnUse">
<stop stop-color="#3F3F3F"/>
<stop offset="1" stop-color="#4B4C4E"/>
</linearGradient>
<linearGradient id="paint8_linear_774_593" x1="43.4467" y1="244.267" x2="1201.42" y2="115.31" gradientUnits="userSpaceOnUse">
<stop stop-color="#3F3F3F"/>
<stop offset="1" stop-color="#4B4C4E"/>
</linearGradient>
<linearGradient id="paint9_linear_774_593" x1="43.4467" y1="244.267" x2="1201.42" y2="115.31" gradientUnits="userSpaceOnUse">
<stop stop-color="#3F3F3F"/>
<stop offset="1" stop-color="#4B4C4E"/>
</linearGradient>
<linearGradient id="paint10_linear_774_593" x1="43.4467" y1="244.267" x2="1201.42" y2="115.31" gradientUnits="userSpaceOnUse">
<stop stop-color="#3F3F3F"/>
<stop offset="1" stop-color="#4B4C4E"/>
</linearGradient>
<linearGradient id="paint11_linear_774_593" x1="1220" y1="2.00002" x2="660.221" y2="761.792" gradientUnits="userSpaceOnUse">
<stop stop-color="#F78D1E"/>
<stop offset="0.5" stop-color="white"/>
<stop offset="1" stop-color="#F78D1E"/>
</linearGradient>
<linearGradient id="paint12_linear_774_593" x1="1220" y1="2" x2="675.491" y2="836.468" gradientUnits="userSpaceOnUse">
<stop stop-color="#F78D1E"/>
<stop offset="0.5" stop-color="white"/>
<stop offset="1" stop-color="#915312"/>
</linearGradient>
<linearGradient id="paint13_linear_774_593" x1="1220" y1="2.00002" x2="660.221" y2="761.792" gradientUnits="userSpaceOnUse">
<stop stop-color="#F78D1E"/>
<stop offset="0.5" stop-color="white"/>
<stop offset="1" stop-color="#F78D1E"/>
</linearGradient>
<linearGradient id="paint14_linear_774_593" x1="1220" y1="2" x2="675.491" y2="836.468" gradientUnits="userSpaceOnUse">
<stop stop-color="#F78D1E"/>
<stop offset="0.5" stop-color="white"/>
<stop offset="1" stop-color="#915312"/>
</linearGradient>
<linearGradient id="paint15_linear_774_593" x1="1220" y1="2.00002" x2="660.221" y2="761.792" gradientUnits="userSpaceOnUse">
<stop stop-color="#F78D1E"/>
<stop offset="0.5" stop-color="white"/>
<stop offset="1" stop-color="#F78D1E"/>
</linearGradient>
<linearGradient id="paint16_linear_774_593" x1="1220" y1="2" x2="675.491" y2="836.468" gradientUnits="userSpaceOnUse">
<stop stop-color="#F78D1E"/>
<stop offset="0.5" stop-color="white"/>
<stop offset="1" stop-color="#915312"/>
</linearGradient>
<linearGradient id="paint17_linear_774_593" x1="1220" y1="2.00002" x2="660.221" y2="761.792" gradientUnits="userSpaceOnUse">
<stop stop-color="#F78D1E"/>
<stop offset="0.5" stop-color="white"/>
<stop offset="1" stop-color="#F78D1E"/>
</linearGradient>
<linearGradient id="paint18_linear_774_593" x1="1220" y1="2" x2="675.491" y2="836.468" gradientUnits="userSpaceOnUse">
<stop stop-color="#F78D1E"/>
<stop offset="0.5" stop-color="white"/>
<stop offset="1" stop-color="#915312"/>
</linearGradient>
<linearGradient id="paint19_linear_774_593" x1="1220" y1="2.00002" x2="660.221" y2="761.792" gradientUnits="userSpaceOnUse">
<stop stop-color="#F78D1E"/>
<stop offset="0.5" stop-color="white"/>
<stop offset="1" stop-color="#F78D1E"/>
</linearGradient>
<linearGradient id="paint20_linear_774_593" x1="1220" y1="2" x2="675.491" y2="836.468" gradientUnits="userSpaceOnUse">
<stop stop-color="#F78D1E"/>
<stop offset="0.5" stop-color="white"/>
<stop offset="1" stop-color="#915312"/>
</linearGradient>
<linearGradient id="paint21_linear_774_593" x1="1220" y1="2.00002" x2="660.221" y2="761.792" gradientUnits="userSpaceOnUse">
<stop stop-color="#F78D1E"/>
<stop offset="0.5" stop-color="white"/>
<stop offset="1" stop-color="#F78D1E"/>
</linearGradient>
<linearGradient id="paint22_linear_774_593" x1="1220" y1="2" x2="675.491" y2="836.468" gradientUnits="userSpaceOnUse">
<stop stop-color="#F78D1E"/>
<stop offset="0.5" stop-color="white"/>
<stop offset="1" stop-color="#915312"/>
</linearGradient>
<linearGradient id="paint23_linear_774_593" x1="1220" y1="2.00002" x2="660.221" y2="761.792" gradientUnits="userSpaceOnUse">
<stop stop-color="#F78D1E"/>
<stop offset="0.5" stop-color="white"/>
<stop offset="1" stop-color="#F78D1E"/>
</linearGradient>
<linearGradient id="paint24_linear_774_593" x1="1220" y1="2" x2="675.491" y2="836.468" gradientUnits="userSpaceOnUse">
<stop stop-color="#F78D1E"/>
<stop offset="0.5" stop-color="white"/>
<stop offset="1" stop-color="#915312"/>
</linearGradient>
<linearGradient id="paint25_linear_774_593" x1="1220" y1="2.00002" x2="660.221" y2="761.792" gradientUnits="userSpaceOnUse">
<stop stop-color="#F78D1E"/>
<stop offset="0.5" stop-color="white"/>
<stop offset="1" stop-color="#F78D1E"/>
</linearGradient>
<linearGradient id="paint26_linear_774_593" x1="1220" y1="2" x2="675.491" y2="836.468" gradientUnits="userSpaceOnUse">
<stop stop-color="#F78D1E"/>
<stop offset="0.5" stop-color="white"/>
<stop offset="1" stop-color="#915312"/>
</linearGradient>
<linearGradient id="paint27_linear_774_593" x1="1220" y1="2.00002" x2="660.221" y2="761.792" gradientUnits="userSpaceOnUse">
<stop stop-color="#F78D1E"/>
<stop offset="0.5" stop-color="white"/>
<stop offset="1" stop-color="#F78D1E"/>
</linearGradient>
<linearGradient id="paint28_linear_774_593" x1="1220" y1="2" x2="675.491" y2="836.468" gradientUnits="userSpaceOnUse">
<stop stop-color="#F78D1E"/>
<stop offset="0.5" stop-color="white"/>
<stop offset="1" stop-color="#915312"/>
</linearGradient>
<linearGradient id="paint29_linear_774_593" x1="1220" y1="2.00002" x2="660.221" y2="761.792" gradientUnits="userSpaceOnUse">
<stop stop-color="#F78D1E"/>
<stop offset="0.5" stop-color="white"/>
<stop offset="1" stop-color="#F78D1E"/>
</linearGradient>
<linearGradient id="paint30_linear_774_593" x1="1220" y1="2" x2="675.491" y2="836.468" gradientUnits="userSpaceOnUse">
<stop stop-color="#F78D1E"/>
<stop offset="0.5" stop-color="white"/>
<stop offset="1" stop-color="#915312"/>
</linearGradient>
<linearGradient id="paint31_linear_774_593" x1="1220" y1="2.00002" x2="660.221" y2="761.792" gradientUnits="userSpaceOnUse">
<stop stop-color="#F78D1E"/>
<stop offset="0.5" stop-color="white"/>
<stop offset="1" stop-color="#F78D1E"/>
</linearGradient>
<linearGradient id="paint32_linear_774_593" x1="1220" y1="2" x2="675.491" y2="836.468" gradientUnits="userSpaceOnUse">
<stop stop-color="#F78D1E"/>
<stop offset="0.5" stop-color="white"/>
<stop offset="1" stop-color="#915312"/>
</linearGradient>
</defs>
</svg>
