<svg width="50" height="50" viewBox="0 0 50 50" fill="none" xmlns="http://www.w3.org/2000/svg">
<path d="M25 2C37.7025 2 48 12.2975 48 25C48 37.7025 37.7025 48 25 48C12.2975 48 2 37.7025 2 25C2 12.2975 12.2975 2 25 2ZM38.2656 16.7383C37.6723 16.1602 36.7227 16.1724 36.1445 16.7656L23.2129 30.0371L16.0117 22.6465L15.8994 22.542C15.3166 22.0538 14.4469 22.0771 13.8906 22.6191C13.3345 23.1612 13.2888 24.0297 13.7617 24.625L13.8633 24.7402L21.4229 32.499C22.4042 33.5062 24.0226 33.5062 25.0039 32.499L38.293 18.8594C38.871 18.2661 38.8589 17.3164 38.2656 16.7383Z" fill="#2B2F2F"/>
</svg>
