<svg width="157" height="54" viewBox="0 0 157 54" fill="none" xmlns="http://www.w3.org/2000/svg">
<g clip-path="url(#clip0_396_303)">
<path d="M100.055 50.1088H98.3654V53.3926H96.6504V44.6669H100.055C101.868 44.6669 102.953 45.904 102.953 47.3869C102.953 48.8697 101.868 50.1068 100.055 50.1068V50.1088ZM99.9703 46.187H98.3675V48.5764H99.9703C100.748 48.5764 101.24 48.0994 101.24 47.3869C101.24 46.6743 100.748 46.187 99.9703 46.187Z" fill="#F78D1E"/>
<path d="M114.647 52.5086C114.03 53.122 113.277 53.4649 112.279 53.4649C111.281 53.4649 110.516 53.122 109.899 52.5086C109.011 51.6268 109.036 50.5363 109.036 49.0287C109.036 47.5211 109.011 46.4307 109.899 45.5488C110.516 44.9354 111.281 44.5926 112.279 44.5926C113.277 44.5926 114.032 44.9354 114.647 45.5488C115.535 46.4307 115.522 47.5211 115.522 49.0287C115.522 50.5363 115.535 51.6268 114.647 52.5086ZM113.377 46.5793C113.129 46.2985 112.747 46.1126 112.279 46.1126C111.811 46.1126 111.416 46.2964 111.169 46.5793C110.836 46.947 110.749 47.3517 110.749 49.0308C110.749 50.7098 110.834 51.1146 111.169 51.4822C111.416 51.7631 111.811 51.9469 112.279 51.9469C112.747 51.9469 113.129 51.7631 113.377 51.4822C113.709 51.1146 113.809 50.7098 113.809 49.0308C113.809 47.3517 113.709 46.947 113.377 46.5793Z" fill="#F78D1E"/>
<path d="M128.14 53.3926L126.525 48.0994L124.91 53.3926H123.48L121.137 44.6669H122.924L124.282 50.1687L125.885 44.6669H127.167L128.77 50.1687L130.14 44.6669H131.928L129.572 53.3926H128.14Z" fill="#F78D1E"/>
<path d="M137.956 44.6669H143.741V46.1869H139.671V48.2336H143.136V49.7536H139.671V51.8746H143.741V53.3946H137.956V44.6669Z" fill="#F78D1E"/>
<path d="M155.015 53.3926L153.3 49.9126H152.068V53.3926H150.353V44.6669H153.793C155.581 44.6669 156.643 45.8792 156.643 47.3393C156.643 48.564 155.89 49.324 155.04 49.6318L157.001 53.3946H155.015V53.3926ZM153.683 46.1869H152.068V48.4897H153.683C154.435 48.4897 154.928 48.0126 154.928 47.3373C154.928 46.662 154.435 46.1849 153.683 46.1849V46.1869Z" fill="#F78D1E"/>
<path d="M114.632 0C116.896 2.34198 118.29 5.51418 118.29 9.00857V10.543H125.425V42.6595H136.037V10.543H156.888V0H114.632Z" fill="#B3B8B8"/>
<path d="M105.165 0.0808614L105.17 0.0828146C109.922 0.0830015 114.169 3.88684 114.169 9.01055V20.4295C114.169 25.8773 109.514 29.3678 105.17 29.368H98.4734L110.771 42.7479H96.5984L82.6013 26.9227V18.8924H102.777C103.619 18.8921 104.475 18.2046 104.475 17.199V12.3689C104.475 11.4995 103.78 10.6893 102.772 10.6893H67.6658V9.0086C67.6658 5.55561 66.3017 2.41456 64.0837 0.0808614H105.165Z" fill="url(#paint0_linear_396_303)"/>
<path d="M105.165 0.0808614L105.17 0.0828146C109.922 0.0830015 114.169 3.88684 114.169 9.01055V20.4295C114.169 25.8773 109.514 29.3678 105.17 29.368H98.4734L110.771 42.7479H96.5984L82.6013 26.9227V18.8924H102.777C103.619 18.8921 104.475 18.2046 104.475 17.199V12.3689C104.475 11.4995 103.78 10.6893 102.772 10.6893H67.6658V9.0086C67.6658 5.55561 66.3017 2.41456 64.0837 0.0808614H105.165Z" fill="#B3B8B8"/>
<path d="M75.0427 42.7459H65.2058V24.6199L75.0427 19.4178V42.7459Z" fill="url(#paint1_linear_396_303)"/>
<path d="M75.0427 42.7459H65.2058V24.6199L75.0427 19.4178V42.7459Z" fill="#B3B8B8"/>
<path d="M54.0324 41.7508C55.5354 41.3027 55.9324 40.8669 55.9324 40.8669C58.3522 39.1156 59.9321 36.2883 59.9321 33.0851V9.82846C59.9321 4.51048 55.5936 0.200328 50.2407 0.200328H32.7433V10.6525H46.9894C48.3282 10.6525 49.4112 11.7305 49.4112 13.0606V29.8551C49.4112 30.2165 49.3239 30.5593 49.1805 30.867C49.1805 30.867 48.8479 31.8418 47.2784 32.1619L34.8803 32.2611H32.7433V42.7132H42.2414L47.9831 50.8647H60.4518L54.0324 41.7508Z" fill="#B3B8B8"/>
<path d="M27.5359 17.1912V25.7268H0V17.2738L0.0748371 17.1912H27.5359Z" fill="url(#paint2_linear_396_303)"/>
<path d="M27.5359 17.1912V25.7268H0V17.2738L0.0748371 17.1912H27.5359Z" fill="#B3B8B8"/>
<path d="M27.5359 0.177772V10.6733L8.91809 0.177772H27.5359Z" fill="url(#paint3_linear_396_303)"/>
<path d="M27.5359 0.177772V10.6733L8.91809 0.177772H27.5359Z" fill="#B3B8B8"/>
<path d="M25.9623 14.3308L2.96854 1.74735C2.23264 2.33801 1.60276 3.0753 1.1184 3.91998L20.1915 14.3308H25.9623Z" fill="url(#paint4_linear_396_303)"/>
<path d="M25.9623 14.3308L2.96854 1.74735C2.23264 2.33801 1.60276 3.0753 1.1184 3.91998L20.1915 14.3308H25.9623Z" fill="#B3B8B8"/>
<path d="M27.5359 32.2798V42.6886H9.06777L27.5359 32.2798Z" fill="url(#paint5_linear_396_303)"/>
<path d="M27.5359 32.2798V42.6886H9.06777L27.5359 32.2798Z" fill="#B3B8B8"/>
<path d="M0 28.5913V34.723C0 35.7763 0.189172 36.78 0.530096 37.7011L17.2396 28.5913H0Z" fill="url(#paint6_linear_396_303)"/>
<path d="M0 28.5913V34.723C0 35.7763 0.189172 36.78 0.530096 37.7011L17.2396 28.5913H0Z" fill="#B3B8B8"/>
<path d="M27.5359 28.5892V30.9519L6.23227 42.5998C5.05566 42.4057 3.9726 41.91 3.04961 41.1851L26.0849 28.5892H27.5359Z" fill="url(#paint7_linear_396_303)"/>
<path d="M27.5359 28.5892V30.9519L6.23227 42.5998C5.05566 42.4057 3.9726 41.91 3.04961 41.1851L26.0849 28.5892H27.5359Z" fill="#B3B8B8"/>
<path d="M0.513466 5.21076C0.182935 6.11739 0 7.10664 0 8.14339V14.3308H17.1918L0.513466 5.21076Z" fill="url(#paint8_linear_396_303)"/>
<path d="M0.513466 5.21076C0.182935 6.11739 0 7.10664 0 8.14339V14.3308H17.1918L0.513466 5.21076Z" fill="#B3B8B8"/>
</g>
<defs>
<linearGradient id="paint0_linear_396_303" x1="-1.55534" y1="1.88879" x2="27.5551" y2="34.3957" gradientUnits="userSpaceOnUse">
<stop stop-color="#E0E5E6"/>
<stop offset="1" stop-color="#505353"/>
</linearGradient>
<linearGradient id="paint1_linear_396_303" x1="-1.55534" y1="1.88879" x2="27.5551" y2="34.3957" gradientUnits="userSpaceOnUse">
<stop stop-color="#E0E5E6"/>
<stop offset="1" stop-color="#505353"/>
</linearGradient>
<linearGradient id="paint2_linear_396_303" x1="-1.55534" y1="1.88879" x2="27.5551" y2="34.3957" gradientUnits="userSpaceOnUse">
<stop stop-color="#E0E5E6"/>
<stop offset="1" stop-color="#505353"/>
</linearGradient>
<linearGradient id="paint3_linear_396_303" x1="-1.55534" y1="1.88879" x2="27.5551" y2="34.3957" gradientUnits="userSpaceOnUse">
<stop stop-color="#E0E5E6"/>
<stop offset="1" stop-color="#505353"/>
</linearGradient>
<linearGradient id="paint4_linear_396_303" x1="-1.55534" y1="1.88879" x2="27.5551" y2="34.3957" gradientUnits="userSpaceOnUse">
<stop stop-color="#E0E5E6"/>
<stop offset="1" stop-color="#505353"/>
</linearGradient>
<linearGradient id="paint5_linear_396_303" x1="-1.55534" y1="1.88879" x2="27.5551" y2="34.3957" gradientUnits="userSpaceOnUse">
<stop stop-color="#E0E5E6"/>
<stop offset="1" stop-color="#505353"/>
</linearGradient>
<linearGradient id="paint6_linear_396_303" x1="-1.55534" y1="1.88879" x2="27.5551" y2="34.3957" gradientUnits="userSpaceOnUse">
<stop stop-color="#E0E5E6"/>
<stop offset="1" stop-color="#505353"/>
</linearGradient>
<linearGradient id="paint7_linear_396_303" x1="-1.55534" y1="1.88879" x2="27.5551" y2="34.3957" gradientUnits="userSpaceOnUse">
<stop stop-color="#E0E5E6"/>
<stop offset="1" stop-color="#505353"/>
</linearGradient>
<linearGradient id="paint8_linear_396_303" x1="-1.55534" y1="1.88879" x2="27.5551" y2="34.3957" gradientUnits="userSpaceOnUse">
<stop stop-color="#E0E5E6"/>
<stop offset="1" stop-color="#505353"/>
</linearGradient>
<clipPath id="clip0_396_303">
<rect width="157" height="53.4649" fill="white"/>
</clipPath>
</defs>
</svg>
