<svg width="292" height="292" viewBox="0 0 292 292" fill="none" xmlns="http://www.w3.org/2000/svg">
<path d="M179.046 78.7246C179.046 66.5764 188.953 56.6913 201.127 56.6913C213.311 56.6913 223.218 66.5769 223.218 78.7246C223.218 90.8818 213.311 100.767 201.127 100.767C188.953 100.767 179.046 90.8818 179.046 78.7246ZM190.935 113.484C199.549 123.264 204.986 135.889 205.625 149.745H241.445C240.019 128.794 222.482 112.181 201.127 112.181C197.655 112.181 194.242 112.622 190.935 113.484ZM200.097 149.745H92.6756C94.12 121.429 117.654 98.8354 146.382 98.8354C175.109 98.8354 198.653 121.428 200.097 149.745ZM153.722 127.455L160.442 122.117L151.864 121.736C150.76 121.691 149.79 120.983 149.399 119.951L146.382 111.924L143.374 119.946C142.987 120.983 142.012 121.691 140.908 121.736L132.326 122.117L139.037 127.455C139.906 128.143 140.274 129.281 139.979 130.346L137.698 138.607L144.855 133.88C145.779 133.27 146.98 133.27 147.904 133.88L155.07 138.607L152.779 130.346C152.485 129.281 152.857 128.143 153.722 127.455ZM101.833 113.484C98.5262 112.622 95.1089 112.181 91.6319 112.181C70.282 112.181 52.7402 128.795 51.3142 149.745H87.1475C87.7866 135.889 93.2231 123.264 101.833 113.484ZM91.6314 100.767C103.815 100.767 113.726 90.8818 113.726 78.7246C113.726 66.5764 103.815 56.6913 91.6314 56.6913C79.4569 56.6913 69.5549 66.5769 69.5549 78.7246C69.5549 90.8818 79.4574 100.767 91.6314 100.767ZM146.382 87.5131C161.859 87.5131 174.447 74.9473 174.447 59.5043C174.447 44.0659 161.859 31.5 146.382 31.5C130.909 31.5 118.326 44.0659 118.326 59.5043C118.326 74.9477 130.91 87.5131 146.382 87.5131ZM179.897 235.662C175.27 245.883 169.778 253.703 163.73 258.848C183.806 255.071 201.679 245.015 215.219 230.802C206.587 226.814 196.394 223.647 185.255 221.426C183.687 226.47 181.898 231.234 179.897 235.662ZM193.12 167.914C192.908 185.129 190.724 201.618 186.8 216.116C198.851 218.558 209.848 222.073 219.065 226.516C232.527 210.577 240.861 190.196 241.5 167.914H193.12ZM112.112 235.662C110.111 231.234 108.323 226.47 106.754 221.426C95.6146 223.648 85.418 226.814 76.7802 230.802C90.325 245.015 108.198 255.075 128.274 258.848C122.231 253.703 116.739 245.887 112.112 235.662ZM179.782 220.426C169.093 218.636 157.668 217.686 146 217.686C134.336 217.686 122.916 218.636 112.227 220.426C113.681 225.011 115.327 229.352 117.153 233.391C125.059 250.872 135.302 260.5 146 260.5C156.703 260.5 166.95 250.872 174.856 233.391C176.686 229.352 178.328 225.01 179.782 220.426ZM146 212.169C158.197 212.169 170.16 213.188 181.35 215.102C185.218 200.976 187.38 184.826 187.591 167.914H104.422C104.634 184.826 106.791 200.976 110.659 215.102C121.849 213.188 133.807 212.169 146 212.169ZM98.894 167.914H50.5C51.1395 190.196 59.4733 210.582 72.9354 226.52C82.157 222.073 93.1584 218.558 105.213 216.116C101.29 201.618 99.1056 185.129 98.894 167.914Z" fill="#404141"/>
</svg>
