<svg width="303" height="6" viewBox="0 0 303 6" fill="none" xmlns="http://www.w3.org/2000/svg">
<path d="M3.94145 -2.61445e-05L3.94145 5.99995L-3.26635e-06 5.99995L-2.74181e-06 -2.64891e-05L3.94145 -2.61445e-05ZM43.2992 -2.27038e-05L43.2992 5.99995L35.4352 5.99995L35.4352 -2.33913e-05L43.2992 -2.27038e-05ZM78.6967 -1.96092e-05L78.6967 5.99995L74.7552 5.99995L74.7552 -1.99538e-05L78.6967 -1.96092e-05ZM118.054 -1.61685e-05L118.054 5.99996L110.19 5.99996L110.19 -1.68559e-05L118.054 -1.61685e-05ZM153.471 -1.30723e-05L153.471 5.99996L149.529 5.99996L149.529 -1.34168e-05L153.471 -1.30723e-05ZM192.81 -9.63315e-06L192.81 5.99996L184.946 5.99996L184.946 -1.03206e-05L192.81 -9.63315e-06ZM228.226 -6.53696e-06L228.226 5.99997L224.285 5.99997L224.285 -6.88153e-06L228.226 -6.53696e-06ZM267.584 -3.09619e-06L267.584 5.99997L259.72 5.99997L259.72 -3.78369e-06L267.584 -3.09619e-06ZM299.059 -3.44571e-07L299.059 5.99997L303 5.99997L303 0L299.059 -3.44571e-07Z" fill="url(#paint0_linear_2011_156)"/>
<defs>
<linearGradient id="paint0_linear_2011_156" x1="-45.1842" y1="-2.58752" x2="-34.3775" y2="63.056" gradientUnits="userSpaceOnUse">
<stop stop-color="#E8ECED"/>
<stop offset="1" stop-color="#353838"/>
</linearGradient>
</defs>
</svg>
