<svg width="292" height="292" viewBox="0 0 292 292" fill="none" xmlns="http://www.w3.org/2000/svg">
<path d="M247.515 51.0729C245.806 50.3622 243.838 50.7553 242.534 52.0645L223.532 71.0659C203.144 50.0812 175.905 38.5264 146.828 38.5264C140.677 38.5264 134.473 39.0633 128.393 40.119C87.0061 47.3119 53.4726 78.2954 42.9665 119.056C42.6124 120.425 42.914 121.878 43.7777 122.995C44.6437 124.113 45.9758 124.766 47.3901 124.766H76.4954C78.4125 124.766 80.1285 123.569 80.7865 121.766C89.307 98.4758 110.472 80.7037 134.706 76.4926C138.698 75.8003 142.76 75.4507 146.789 75.4507C166.046 75.4507 184.031 83.16 197.441 97.1574L178.145 116.451C176.84 117.758 176.449 119.723 177.153 121.43C177.864 123.139 179.527 124.252 181.376 124.252H245.767C248.289 124.252 250.337 122.205 250.337 119.682V55.2931C250.337 53.4469 249.219 51.7812 247.515 51.0729Z" fill="#404141"/>
<path d="M244.605 167.232H215.502C213.585 167.232 211.869 168.427 211.211 170.229C202.69 193.52 181.525 211.294 157.291 215.503C153.297 216.195 149.237 216.545 145.209 216.545C125.951 216.545 107.965 208.835 94.5567 194.838L113.851 175.544C115.158 174.237 115.548 172.272 114.842 170.565C114.134 168.856 112.468 167.743 110.62 167.743H46.2329C43.7104 167.743 41.6631 169.791 41.6631 172.313V236.705C41.6631 238.553 42.7758 240.219 44.485 240.927C46.1895 241.635 48.1568 241.242 49.4638 239.933L68.4652 220.934C88.8512 241.916 116.09 253.474 145.168 253.474C151.321 253.474 157.524 252.937 163.605 251.881C204.989 244.693 238.525 213.705 249.031 172.944C249.385 171.573 249.083 170.124 248.222 169.002C247.354 167.887 246.019 167.232 244.605 167.232Z" fill="#404141"/>
</svg>
