<svg width="632" height="75" viewBox="0 0 632 75" fill="none" xmlns="http://www.w3.org/2000/svg">
<path d="M631.2 15.0549C631.2 15.3949 631.064 15.7009 630.792 15.9729C630.588 16.1769 630.316 16.2789 629.976 16.2789H597.948C597.608 16.2789 597.438 16.4489 597.438 16.7889V29.3349C597.438 29.6749 597.608 29.8449 597.948 29.8449H618.45C618.79 29.8449 619.062 29.9809 619.266 30.2529C619.538 30.4569 619.674 30.7289 619.674 31.0689V43.0029C619.674 43.3429 619.538 43.6489 619.266 43.9209C619.062 44.1249 618.79 44.2269 618.45 44.2269H597.948C597.608 44.2269 597.438 44.3969 597.438 44.7369V58.2009C597.438 58.5409 597.608 58.7109 597.948 58.7109H629.976C630.316 58.7109 630.588 58.8469 630.792 59.1189C631.064 59.3229 631.2 59.5949 631.2 59.9349V71.9709C631.2 72.3109 631.064 72.6169 630.792 72.8889C630.588 73.0929 630.316 73.1949 629.976 73.1949H581.73C581.39 73.1949 581.084 73.0929 580.812 72.8889C580.608 72.6169 580.506 72.3109 580.506 71.9709V3.01892C580.506 2.67893 580.608 2.40692 580.812 2.20292C581.084 1.93092 581.39 1.79492 581.73 1.79492H629.976C630.316 1.79492 630.588 1.93092 630.792 2.20292C631.064 2.40692 631.2 2.67893 631.2 3.01892V15.0549Z" fill="white"/>
<path d="M556.102 73.1949C555.422 73.1949 554.946 72.8889 554.674 72.2769L542.638 45.1449C542.502 44.8729 542.298 44.7369 542.026 44.7369H535.294C534.954 44.7369 534.784 44.9069 534.784 45.2469V71.9709C534.784 72.3109 534.648 72.6169 534.376 72.8889C534.172 73.0929 533.9 73.1949 533.56 73.1949H519.076C518.736 73.1949 518.43 73.0929 518.158 72.8889C517.954 72.6169 517.852 72.3109 517.852 71.9709V3.01892C517.852 2.67893 517.954 2.40692 518.158 2.20292C518.43 1.93092 518.736 1.79492 519.076 1.79492H549.37C553.858 1.79492 557.802 2.71292 561.202 4.54892C564.602 6.38492 567.22 9.00292 569.056 12.4029C570.96 15.7349 571.912 19.5769 571.912 23.9289C571.912 28.4849 570.79 32.4289 568.546 35.7609C566.302 39.0929 563.174 41.5069 559.162 43.0029C558.822 43.1389 558.72 43.3769 558.856 43.7169L572.32 71.7669C572.456 72.0389 572.524 72.2429 572.524 72.3789C572.524 72.9229 572.15 73.1949 571.402 73.1949H556.102ZM535.294 16.2789C534.954 16.2789 534.784 16.4489 534.784 16.7889V31.2729C534.784 31.6129 534.954 31.7829 535.294 31.7829H546.616C549.132 31.7829 551.172 31.1029 552.736 29.7429C554.3 28.3149 555.082 26.4449 555.082 24.1329C555.082 21.7529 554.3 19.8489 552.736 18.4209C551.172 16.9929 549.132 16.2789 546.616 16.2789H535.294Z" fill="white"/>
<path d="M481.129 74.0109C475.757 74.0109 470.997 72.9909 466.849 70.9509C462.769 68.8429 459.573 65.8849 457.261 62.0769C455.017 58.2689 453.895 53.8829 453.895 48.9189V3.01892C453.895 2.67893 453.997 2.40692 454.201 2.20292C454.473 1.93092 454.779 1.79492 455.119 1.79492H469.603C469.943 1.79492 470.215 1.93092 470.419 2.20292C470.691 2.40692 470.827 2.67893 470.827 3.01892V48.9189C470.827 52.1149 471.745 54.6989 473.581 56.6709C475.485 58.5749 478.001 59.5269 481.129 59.5269C484.189 59.5269 486.637 58.5749 488.473 56.6709C490.377 54.6989 491.329 52.1149 491.329 48.9189V3.01892C491.329 2.67893 491.431 2.40692 491.635 2.20292C491.907 1.93092 492.213 1.79492 492.553 1.79492H507.037C507.377 1.79492 507.649 1.93092 507.853 2.20292C508.125 2.40692 508.261 2.67893 508.261 3.01892V48.9189C508.261 53.8829 507.139 58.2689 504.895 62.0769C502.651 65.8849 499.455 68.8429 495.307 70.9509C491.227 72.9909 486.501 74.0109 481.129 74.0109Z" fill="white"/>
<path d="M445.75 1.79492C446.09 1.79492 446.362 1.93092 446.566 2.20292C446.838 2.40692 446.974 2.67893 446.974 3.01892V15.1569C446.974 15.4969 446.838 15.8029 446.566 16.0749C446.362 16.2789 446.09 16.3809 445.75 16.3809H427.9C427.56 16.3809 427.39 16.5509 427.39 16.8909V71.9709C427.39 72.3109 427.254 72.6169 426.982 72.8889C426.778 73.0929 426.506 73.1949 426.166 73.1949H411.682C411.342 73.1949 411.036 73.0929 410.764 72.8889C410.56 72.6169 410.458 72.3109 410.458 71.9709V16.8909C410.458 16.5509 410.288 16.3809 409.948 16.3809H392.71C392.37 16.3809 392.064 16.2789 391.792 16.0749C391.588 15.8029 391.486 15.4969 391.486 15.1569V3.01892C391.486 2.67893 391.588 2.40692 391.792 2.20292C392.064 1.93092 392.37 1.79492 392.71 1.79492H445.75Z" fill="white"/>
<path d="M357.414 74.0109C352.042 74.0109 347.282 72.9909 343.134 70.9509C339.054 68.8429 335.858 65.8849 333.546 62.0769C331.302 58.2689 330.18 53.8829 330.18 48.9189V3.01892C330.18 2.67893 330.282 2.40692 330.486 2.20292C330.758 1.93092 331.064 1.79492 331.404 1.79492H345.888C346.228 1.79492 346.5 1.93092 346.704 2.20292C346.976 2.40692 347.112 2.67893 347.112 3.01892V48.9189C347.112 52.1149 348.03 54.6989 349.866 56.6709C351.77 58.5749 354.286 59.5269 357.414 59.5269C360.474 59.5269 362.922 58.5749 364.758 56.6709C366.662 54.6989 367.614 52.1149 367.614 48.9189V3.01892C367.614 2.67893 367.716 2.40692 367.92 2.20292C368.192 1.93092 368.498 1.79492 368.838 1.79492H383.322C383.662 1.79492 383.934 1.93092 384.138 2.20292C384.41 2.40692 384.546 2.67893 384.546 3.01892V48.9189C384.546 53.8829 383.424 58.2689 381.18 62.0769C378.936 65.8849 375.74 68.8429 371.592 70.9509C367.512 72.9909 362.786 74.0109 357.414 74.0109Z" fill="white"/>
<path d="M324.401 15.0549C324.401 15.3949 324.265 15.7009 323.993 15.9729C323.789 16.1769 323.517 16.2789 323.177 16.2789H291.251C290.911 16.2789 290.741 16.4489 290.741 16.7889V29.3349C290.741 29.6749 290.911 29.8449 291.251 29.8449H311.753C312.093 29.8449 312.365 29.9809 312.569 30.2529C312.841 30.4569 312.977 30.7289 312.977 31.0689V43.0029C312.977 43.3429 312.841 43.6489 312.569 43.9209C312.365 44.1249 312.093 44.2269 311.753 44.2269H291.251C290.911 44.2269 290.741 44.3969 290.741 44.7369V71.9709C290.741 72.3109 290.605 72.6169 290.333 72.8889C290.129 73.0929 289.857 73.1949 289.517 73.1949H275.033C274.693 73.1949 274.387 73.0929 274.115 72.8889C273.911 72.6169 273.809 72.3109 273.809 71.9709V3.01892C273.809 2.67893 273.911 2.40692 274.115 2.20292C274.387 1.93092 274.693 1.79492 275.033 1.79492H323.177C323.517 1.79492 323.789 1.93092 323.993 2.20292C324.265 2.40692 324.401 2.67893 324.401 3.01892V15.0549Z" fill="white"/>
<path d="M228.984 73.1949C228.304 73.1949 227.828 72.8889 227.556 72.2769L215.52 45.1449C215.384 44.8729 215.18 44.7369 214.908 44.7369H208.176C207.836 44.7369 207.666 44.9069 207.666 45.2469V71.9709C207.666 72.3109 207.53 72.6169 207.258 72.8889C207.054 73.0929 206.782 73.1949 206.442 73.1949H191.958C191.618 73.1949 191.312 73.0929 191.04 72.8889C190.836 72.6169 190.734 72.3109 190.734 71.9709V3.01892C190.734 2.67893 190.836 2.40692 191.04 2.20292C191.312 1.93092 191.618 1.79492 191.958 1.79492H222.252C226.74 1.79492 230.684 2.71292 234.084 4.54892C237.484 6.38492 240.102 9.00292 241.938 12.4029C243.842 15.7349 244.794 19.5769 244.794 23.9289C244.794 28.4849 243.672 32.4289 241.428 35.7609C239.184 39.0929 236.056 41.5069 232.044 43.0029C231.704 43.1389 231.602 43.3769 231.738 43.7169L245.202 71.7669C245.338 72.0389 245.406 72.2429 245.406 72.3789C245.406 72.9229 245.032 73.1949 244.284 73.1949H228.984ZM208.176 16.2789C207.836 16.2789 207.666 16.4489 207.666 16.7889V31.2729C207.666 31.6129 207.836 31.7829 208.176 31.7829H219.498C222.014 31.7829 224.054 31.1029 225.618 29.7429C227.182 28.3149 227.964 26.4449 227.964 24.1329C227.964 21.7529 227.182 19.8489 225.618 18.4209C224.054 16.9929 222.014 16.2789 219.498 16.2789H208.176Z" fill="white"/>
<path d="M154.011 74.0109C148.639 74.0109 143.879 72.9909 139.731 70.9509C135.651 68.8429 132.455 65.8849 130.143 62.0769C127.899 58.2689 126.777 53.8829 126.777 48.9189V3.01892C126.777 2.67893 126.879 2.40692 127.083 2.20292C127.355 1.93092 127.661 1.79492 128.001 1.79492H142.485C142.825 1.79492 143.097 1.93092 143.301 2.20292C143.573 2.40692 143.709 2.67893 143.709 3.01892V48.9189C143.709 52.1149 144.627 54.6989 146.463 56.6709C148.367 58.5749 150.883 59.5269 154.011 59.5269C157.071 59.5269 159.519 58.5749 161.355 56.6709C163.259 54.6989 164.211 52.1149 164.211 48.9189V3.01892C164.211 2.67893 164.313 2.40692 164.517 2.20292C164.789 1.93092 165.095 1.79492 165.435 1.79492H179.919C180.259 1.79492 180.531 1.93092 180.735 2.20292C181.007 2.40692 181.143 2.67893 181.143 3.01892V48.9189C181.143 53.8829 180.021 58.2689 177.777 62.0769C175.533 65.8849 172.337 68.8429 168.189 70.9509C164.109 72.9909 159.383 74.0109 154.011 74.0109Z" fill="white"/>
<path d="M90.4549 74.3175C84.9469 74.3175 80.0849 73.2295 75.8689 71.0535C71.7209 68.8095 68.4909 65.6815 66.1789 61.6695C63.8669 57.6575 62.7109 52.9995 62.7109 47.6955V27.2955C62.7109 22.1275 63.8669 17.5715 66.1789 13.6275C68.4909 9.61549 71.7209 6.52149 75.8689 4.34549C80.0849 2.10149 84.9469 0.979492 90.4549 0.979492C95.9629 0.979492 100.825 2.10149 105.041 4.34549C109.257 6.52149 112.521 9.61549 114.833 13.6275C117.145 17.5715 118.301 22.1275 118.301 27.2955V47.6955C118.301 52.9995 117.145 57.6575 114.833 61.6695C112.521 65.6815 109.257 68.8095 105.041 71.0535C100.825 73.2295 95.9629 74.3175 90.4549 74.3175ZM90.4549 59.8335C93.7189 59.8335 96.3369 58.7795 98.3089 56.6715C100.349 54.5635 101.369 51.7415 101.369 48.2055V27.0915C101.369 23.6235 100.349 20.8355 98.3089 18.7275C96.3369 16.5515 93.7189 15.4635 90.4549 15.4635C87.2589 15.4635 84.6409 16.5515 82.6009 18.7275C80.6289 20.8355 79.6429 23.6235 79.6429 27.0915V48.2055C79.6429 51.7415 80.6289 54.5635 82.6009 56.6715C84.6409 58.7795 87.2589 59.8335 90.4549 59.8335Z" fill="white"/>
<path d="M23.065 72.9909C22.725 72.9909 22.419 72.8889 22.147 72.6849C21.943 72.4129 21.841 72.1069 21.841 71.7669V47.5929C21.841 47.3209 21.807 47.1169 21.739 46.9809L0.829 3.22292C0.692999 2.95092 0.625 2.74692 0.625 2.61092C0.625 2.06692 0.999 1.79492 1.747 1.79492H17.455C18.135 1.79492 18.611 2.10092 18.883 2.71292L30.001 28.5189C30.205 28.9269 30.409 28.9269 30.613 28.5189L41.833 2.71292C42.105 2.10092 42.581 1.79492 43.261 1.79492H59.071C59.547 1.79492 59.853 1.93092 59.989 2.20292C60.193 2.40692 60.193 2.74692 59.989 3.22292L38.773 46.9809C38.705 47.1169 38.671 47.3209 38.671 47.5929V71.7669C38.671 72.1069 38.535 72.4129 38.263 72.6849C38.059 72.8889 37.787 72.9909 37.447 72.9909H23.065Z" fill="white"/>
</svg>
